<svg xmlns="http://www.w3.org/2000/svg" viewBox="0 0 1440 150"><path fill="#F2F2F9" fill-opacity="1" d="M0,288L0,128L55.4,128L55.4,256L110.8,256L110.8,288L166.2,288L166.2,128L221.5,128L221.5,128L276.9,128L276.9,256L332.3,256L332.3,224L387.7,224L387.7,256L443.1,256L443.1,160L498.5,160L498.5,224L553.8,224L553.8,320L609.2,320L609.2,96L664.6,96L664.6,288L720,288L720,320L775.4,320L775.4,288L830.8,288L830.8,96L886.2,96L886.2,64L941.5,64L941.5,256L996.9,256L996.9,0L1052.3,0L1052.3,224L1107.7,224L1107.7,160L1163.1,160L1163.1,256L1218.5,256L1218.5,128L1273.8,128L1273.8,192L1329.2,192L1329.2,128L1384.6,128L1384.6,0L1440,0L1440,320L1384.6,320L1384.6,320L1329.2,320L1329.2,320L1273.8,320L1273.8,320L1218.5,320L1218.5,320L1163.1,320L1163.1,320L1107.7,320L1107.7,320L1052.3,320L1052.3,320L996.9,320L996.9,320L941.5,320L941.5,320L886.2,320L886.2,320L830.8,320L830.8,320L775.4,320L775.4,320L720,320L720,320L664.6,320L664.6,320L609.2,320L609.2,320L553.8,320L553.8,320L498.5,320L498.5,320L443.1,320L443.1,320L387.7,320L387.7,320L332.3,320L332.3,320L276.9,320L276.9,320L221.5,320L221.5,320L166.2,320L166.2,320L110.8,320L110.8,320L55.4,320L55.4,320L0,320L0,320Z"></path></svg>