<svg xmlns="http://www.w3.org/2000/svg" viewBox="0 0 400 300" width="406" height="306" class="illustration styles_illustrationTablet__1DWOa"><g id="_516_data_and_settings_outline" data-name="#516_data_and_settings_outline"><polygon points="236.28 126.04 236.28 115.49 276.2 115.49 276.2 126.04 276.2 142.47 276.2 208.03 150.74 208.03 150.74 126.04 236.28 126.04" fill="#093f68"></polygon><path d="M276.21,209H150.74a1,1,0,0,1-1-1V126a1,1,0,0,1,1-1h84.54v-9.55a1,1,0,0,1,1-1h39.93a1,1,0,0,1,1,1V208A1,1,0,0,1,276.21,209Zm-124.47-2H275.21V116.49H237.28V126a1,1,0,0,1-1,1H151.74Z" fill="#093f68"></path><polygon points="163.89 191.3 276.2 191.3 276.2 97.03 254.83 77.02 163.89 77.02 163.89 191.3" fill="#fff"></polygon><path d="M276.21,192.3H163.89a1,1,0,0,1-1-1V77a1,1,0,0,1,1-1h90.94a1,1,0,0,1,.68.27l21.38,20a1,1,0,0,1,.32.74V191.3A1,1,0,0,1,276.21,192.3Zm-111.32-2H275.21V97.46L254.44,78H164.89Z" fill="#093f68"></path><polygon points="150.74 208.03 276.2 208.03 299.65 137.95 174.18 137.95 150.74 208.03" fill="#E95A5C"></polygon><path d="M276.21,209H150.74a1,1,0,0,1-.81-.41,1,1,0,0,1-.14-.91l23.45-70.08a1,1,0,0,1,.94-.68H299.65a1,1,0,0,1,1,1.31l-23.45,70.09A1,1,0,0,1,276.21,209Zm-124.08-2H275.49L298.26,139H174.9Z" fill="#093f68"></path><path d="M273.73,152.85H246.6a1,1,0,0,1,0-2h27.13a1,1,0,0,1,0,2Z" fill="#093f68"></path><polygon points="254.83 77.02 254.79 97.03 276.2 97.03 254.83 77.02" fill="#fff"></polygon><path d="M276.21,98H254.79a1,1,0,0,1-.71-.3,1,1,0,0,1-.29-.71l0-20a1,1,0,0,1,.6-.92,1,1,0,0,1,1.08.19l21.38,20a1,1,0,0,1-.68,1.74Zm-20.42-2h17.88L255.83,79.32Z" fill="#093f68"></path><path d="M191.51,178.19a4.78,4.78,0,0,0-3.69-4.47c-1.78-.38-3.59-.67-5.4-.95a1.2,1.2,0,0,1-1.07-.89c-.53-1.43-1.13-2.85-1.76-4.25a.93.93,0,0,1,.1-1.08c1.09-1.49,2.19-3,3.19-4.53a4.73,4.73,0,0,0-.41-5.78c-1.65-1.81-3.42-3.52-5.15-5.25a5.05,5.05,0,0,0-6.9-.63c-1.36.94-2.7,1.89-4,2.87a.93.93,0,0,1-1.08.11c-1.53-.68-3.07-1.31-4.63-1.91a.92.92,0,0,1-.69-.84c-.26-1.65-.53-3.3-.82-4.94a5,5,0,0,0-4.78-4.28q-3.81-.09-7.62,0a4.83,4.83,0,0,0-4.62,3.78c-.41,1.84-.69,3.72-1,5.59a1,1,0,0,1-.7.83c-1.48.59-3,1.22-4.42,1.88a.86.86,0,0,1-1-.09c-1.47-1.08-2.94-2.17-4.46-3.18a4.75,4.75,0,0,0-5.84.38c-1.93,1.77-3.82,3.62-5.6,5.54a4.89,4.89,0,0,0-.33,6.5c1,1.43,2,2.83,3,4.26a1,1,0,0,1,.08.76q-.93,2.4-1.93,4.76a1,1,0,0,1-.6.5c-1.64.3-3.29.57-4.94.83a5,5,0,0,0-4.43,4.64c-.08,2.65-.08,5.31,0,8a4.76,4.76,0,0,0,3.67,4.42c1.89.43,3.81.72,5.72,1a.9.9,0,0,1,.79.66c.6,1.51,1.24,3,1.9,4.48a.81.81,0,0,1-.09,1c-1,1.37-2,2.73-3,4.13a5,5,0,0,0,.58,6.7c1.59,1.62,3.19,3.23,4.82,4.82a5,5,0,0,0,6.86.52c1.38-1,2.77-1.94,4.13-2.95a.8.8,0,0,1,.91-.07c1.41.61,2.82,1.22,4.26,1.75a1.08,1.08,0,0,1,.78,1c.25,1.62.52,3.25.81,4.87a4.94,4.94,0,0,0,4.56,4.28c2.67.09,5.35.08,8,0a4.8,4.8,0,0,0,4.44-3.73c.39-1.81.67-3.64,1-5.46a1.05,1.05,0,0,1,.76-.95c1.49-.57,3-1.19,4.44-1.84a.85.85,0,0,1,1,.1c1.37,1,2.75,2,4.13,3a5.28,5.28,0,0,0,3.33,1,4.3,4.3,0,0,0,3-1.21c1.75-1.65,3.44-3.37,5.15-5.07a5.08,5.08,0,0,0,.62-7q-1.41-2-2.87-4a.84.84,0,0,1-.1-1c.66-1.49,1.28-3,1.87-4.5a1,1,0,0,1,.86-.68c1.65-.25,3.3-.53,4.94-.81a5,5,0,0,0,4.33-4.73C191.59,183.4,191.58,180.79,191.51,178.19Zm-40.8,21.55a17.6,17.6,0,1,1,17.64-17.57A17.61,17.61,0,0,1,150.71,199.74Z" fill="#f56132" stroke="#093f68" stroke-linecap="round" stroke-linejoin="round" stroke-width="2"></path><g id="ahcQ9Z"><path d="M153.2,124.81a3.24,3.24,0,0,0-.76-3.85c-.93-.81-1.92-1.56-2.9-2.31a.8.8,0,0,1-.35-.88c.15-1,.25-2.06.33-3.1a.62.62,0,0,1,.4-.61c1.14-.54,2.28-1.06,3.37-1.66a3.22,3.22,0,0,0,1.63-3.58c-.4-1.61-.9-3.19-1.37-4.79a3.43,3.43,0,0,0-3.9-2.61c-1.11.12-2.22.26-3.33.41a.65.65,0,0,1-.68-.28q-1-1.35-2.13-2.64a.63.63,0,0,1-.15-.72c.38-1.07.76-2.14,1.12-3.21A3.39,3.39,0,0,0,143,90.89c-1.49-.86-3-1.68-4.54-2.47a3.28,3.28,0,0,0-4,.76c-.84,1-1.61,2-2.4,3a.65.65,0,0,1-.69.27c-1.07-.13-2.16-.23-3.24-.31a.61.61,0,0,1-.58-.38c-.52-1.13-1-2.25-1.62-3.34a3.24,3.24,0,0,0-3.6-1.67c-1.72.43-3.44.92-5.13,1.49A3.31,3.31,0,0,0,115,92c.12,1.17.28,2.34.4,3.51a.64.64,0,0,1-.19.48c-.88.75-1.78,1.49-2.69,2.21a.74.74,0,0,1-.52.1c-1.07-.35-2.14-.73-3.21-1.11a3.39,3.39,0,0,0-4.14,1.34c-.9,1.54-1.76,3.13-2.57,4.73a3.22,3.22,0,0,0,.75,3.82c1,.86,2,1.66,3.07,2.47a.6.6,0,0,1,.26.64c-.14,1.1-.24,2.19-.32,3.29a.56.56,0,0,1-.37.54c-1,.49-2.07,1-3.1,1.5a3.39,3.39,0,0,0-1.82,4.17c.42,1.48.85,3,1.31,4.43a3.39,3.39,0,0,0,3.91,2.53c1.14-.13,2.28-.26,3.42-.41a.52.52,0,0,1,.56.24c.64.82,1.28,1.64,2,2.42a.75.75,0,0,1,.15.85c-.39,1.05-.75,2.11-1.1,3.17a3.31,3.31,0,0,0,1.33,4q2.34,1.38,4.77,2.6a3.25,3.25,0,0,0,3.85-.78c.82-.95,1.57-1.95,2.34-2.94a.73.73,0,0,1,.76-.32c1.07.15,2.16.26,3.24.35a.56.56,0,0,1,.54.37c.49,1,1,2.06,1.5,3.09a3.57,3.57,0,0,0,1.65,1.68,2.92,2.92,0,0,0,2.16.24c1.57-.42,3.14-.89,4.7-1.35a3.44,3.44,0,0,0,2.64-4c-.12-1.11-.26-2.22-.4-3.33a.56.56,0,0,1,.25-.6c.87-.67,1.73-1.36,2.57-2.07a.63.63,0,0,1,.73-.13l3.2,1.12a3.39,3.39,0,0,0,4.11-1.42Q152,127.18,153.2,124.81Zm-31.26-.37a11.92,11.92,0,1,1,16.18-4.75A11.94,11.94,0,0,1,121.94,124.44Z" fill="#ffbc0e" stroke="#093f68" stroke-linecap="round" stroke-linejoin="round" stroke-width="2"></path></g><path d="M246.6,92.66h-66a1,1,0,0,1,0-2h66a1,1,0,0,1,0,2Z" fill="#dfeaef"></path><path d="M268.49,104.81H180.56a1,1,0,0,1,0-2h87.93a1,1,0,0,1,0,2Z" fill="#dfeaef"></path><path d="M268.49,117H187.78a1,1,0,0,1,0-2h80.71a1,1,0,0,1,0,2Z" fill="#dfeaef"></path><path d="M249.53,129.11h-69a1,1,0,0,1,0-2h69a1,1,0,0,1,0,2Z" fill="#dfeaef"></path></g></svg>